# WaveFront *.obj file (generated by Autodesk ATF)

mtllib maila.mtl

g Solid1

v 1.000000 0.000000 -75.000000
v 0.983303 0.000000 -75.086147
v 0.935662 0.000000 -75.160808
v 0.747550 0.000000 -75.275671
v 0.000000 0.000000 -75.367561
v 0.766044 -0.642788 -75.000000
v 0.173648 -0.984808 -75.000000
v -0.500000 -0.866025 -75.000000
v -0.939693 -0.342020 -75.000000
v -0.939693 0.342020 -75.000000
v -0.500000 0.866025 -75.000000
v 0.173648 0.984808 -75.000000
v 0.766044 0.642788 -75.000000
v 0.286075 0.690646 -75.275671
v 0.193480 -0.722077 -75.275671
v -0.647397 -0.373775 -75.275671
v -0.528597 0.528597 -75.275671
v 3.000000 0.000000 75.000000
v 2.298133 -1.928363 75.000000
v 0.520945 -2.954423 75.000000
v -1.500000 -2.598076 75.000000
v -2.819078 -1.026060 75.000000
v -2.819078 1.026060 75.000000
v -1.500000 2.598076 75.000000
v 0.520945 2.954423 75.000000
v 2.298133 1.928363 75.000000
v -1.200000 0.000000 -60.000000
v -1.800000 0.000000 -15.000000
v -2.400000 -0.000000 30.000000
v 1.127631 0.410424 -60.000000
v 1.691447 0.615636 -15.000000
v 2.255262 0.820848 30.000000
v 2.255262 -0.820848 30.000000
v 1.691447 -0.615636 -15.000000
v 1.127631 -0.410424 -60.000000
v 0.600000 1.039230 -60.000000
v 0.900000 1.558846 -15.000000
v 1.200000 2.078461 30.000000
v -0.208378 1.181769 -60.000000
v -0.312567 1.772654 -15.000000
v -0.416756 2.363539 30.000000
v -0.919253 0.771345 -60.000000
v -1.378880 1.157018 -15.000000
v -1.838507 1.542690 30.000000
v -0.919253 -0.771345 -60.000000
v -1.378880 -1.157018 -15.000000
v -1.838507 -1.542690 30.000000
v -0.208378 -1.181769 -60.000000
v -0.312567 -1.772654 -15.000000
v -0.416756 -2.363539 30.000000
v 0.600000 -1.039230 -60.000000
v 0.900000 -1.558846 -15.000000
v 1.200000 -2.078461 30.000000
vt 0.106549 0.000000 0.000000
vt 0.119868 0.000000 0.000000
vt 0.106549 0.052189 0.000000
vt 0.133186 0.000000 0.000000
vt 0.159824 0.088069 0.000000
vt 0.159824 0.000000 0.000000
vt 0.213098 0.000000 0.000000
vt 0.213098 0.371845 0.000000
vt 0.159824 0.469699 0.000000
vt 0.159824 0.371845 0.000000
vt 0.133186 0.469699 0.000000
vt 0.106549 0.417510 0.000000
vt 0.119868 0.469699 0.000000
vt 0.106549 0.469699 0.000000
vt 0.106549 0.365322 0.000000
vt 0.106549 0.313133 0.000000
vt 0.159824 0.273991 0.000000
vt 0.106549 0.260944 0.000000
vt 0.106549 0.208755 0.000000
vt 0.159824 0.176137 0.000000
vt 0.106549 0.156566 0.000000
vt 0.106549 0.104378 0.000000
vt 0.213098 0.176137 0.000000
vt 0.213098 0.156566 0.000000
vt 0.213098 0.313133 0.000000
vt 7.500667 0.139626 0.000000
vt 6.000533 0.069813 0.000000
vt 7.500667 0.000000 0.000000
vt 6.000533 -0.069813 0.000000
vt 7.500667 -0.139626 0.000000
vt 6.000533 -0.209440 0.000000
vt 7.500667 -0.279253 0.000000
vt 6.000533 -0.349066 0.000000
vt 7.500667 -0.418879 0.000000
vt 6.000533 -0.488692 0.000000
vt 7.500667 -0.558505 0.000000
vt 6.000533 -0.628319 0.000000
vt 7.500667 -0.698132 0.000000
vt 7.500667 0.558505 0.000000
vt 6.000533 0.628319 0.000000
vt 6.000533 0.488692 0.000000
vt 7.500667 0.418879 0.000000
vt 6.000533 0.349066 0.000000
vt 7.500667 0.279253 0.000000
vt 6.000533 0.209440 0.000000
vt -7.500667 -0.139626 0.000000
vt -3.000267 -0.069813 0.000000
vt -7.500667 0.000000 0.000000
vt -3.000267 0.069813 0.000000
vt -7.500667 0.139626 0.000000
vt -3.000267 0.209440 0.000000
vt -7.500667 0.279253 0.000000
vt -3.000267 0.349066 0.000000
vt -7.500667 0.418879 0.000000
vt -3.000267 0.488692 0.000000
vt -7.500667 0.558505 0.000000
vt -3.000267 0.628319 0.000000
vt -7.500667 0.698132 0.000000
vt -7.500667 -0.558505 0.000000
vt -3.000267 -0.628319 0.000000
vt -3.000267 -0.488692 0.000000
vt -7.500667 -0.418879 0.000000
vt -3.000267 -0.349066 0.000000
vt -7.500667 -0.279253 0.000000
vt -3.000267 -0.209440 0.000000
vt 1.500133 0.628319 0.000000
vt 1.500133 0.488692 0.000000
vt 1.500133 0.349066 0.000000
vt 1.500133 0.209440 0.000000
vt 1.500133 0.069813 0.000000
vt 1.500133 -0.069813 0.000000
vt 1.500133 -0.209440 0.000000
vt 1.500133 -0.349066 0.000000
vt 1.500133 -0.488692 0.000000
vt 1.500133 -0.628319 0.000000
vt 0.229813 0.192836 0.000000
vt -0.281908 0.102606 0.000000
vt 0.300000 0.000000 0.000000
vt -0.281908 -0.102606 0.000000
vt 0.229813 -0.192836 0.000000
vt -0.150000 -0.259808 0.000000
vt 0.052094 -0.295442 0.000000
vt 0.052094 0.295442 0.000000
vt -0.150000 0.259808 0.000000
vn 0.099991 0.000000 -0.001333
vn 0.092845 0.000000 -0.037146
vn 0.076598 0.064273 -0.001333
vn 0.073748 0.000000 -0.067536
vn 0.013202 0.031873 -0.093860
vn 0.034499 0.000000 -0.093860
vn 0.000001 0.000000 -0.100000
vn 0.000000 -0.000001 -0.100000
vn 0.008929 -0.033324 -0.093860
vn 0.076598 -0.064273 -0.001333
vn 0.017363 -0.098472 -0.001333
vn -0.049996 -0.086595 -0.001333
vn -0.029877 -0.017250 -0.093860
vn -0.093961 -0.034199 -0.001333
vn -0.093961 0.034199 -0.001333
vn -0.024395 0.024395 -0.093860
vn -0.049996 0.086595 -0.001333
vn 0.017363 0.098472 -0.001333
vn -0.000000 0.000000 -0.100000
vn -0.000000 0.000000 -0.100000
vn -0.000000 -0.000000 -0.100000
vn 0.093961 0.034199 -0.001333
vn 0.093961 -0.034199 -0.001333
vn 0.049996 -0.086595 -0.001333
vn -0.017363 -0.098472 -0.001333
vn -0.076598 -0.064273 -0.001333
vn -0.099991 -0.000000 -0.001333
vn -0.076598 0.064273 -0.001333
vn -0.017363 0.098472 -0.001333
vn 0.049996 0.086595 -0.001333
vn 0.076598 -0.064273 -0.001333
vn 0.093961 -0.034199 -0.001333
vn 0.099991 0.000000 -0.001333
vn 0.093961 0.034199 -0.001333
vn 0.076598 0.064273 -0.001333
vn 0.049996 0.086595 -0.001333
vn 0.017363 0.098472 -0.001333
vn -0.017363 0.098472 -0.001333
vn -0.049996 0.086595 -0.001333
vn -0.076598 0.064273 -0.001333
vn -0.093961 0.034199 -0.001333
vn -0.099991 0.000000 -0.001333
vn -0.093961 -0.034199 -0.001333
vn -0.076598 -0.064273 -0.001333
vn -0.049996 -0.086595 -0.001333
vn -0.017363 -0.098472 -0.001333
vn 0.017363 -0.098472 -0.001333
vn 0.049996 -0.086595 -0.001333
vn -0.099991 0.000000 -0.001333
vn -0.076598 0.064273 -0.001333
vn -0.017363 0.098472 -0.001333
vn 0.049996 0.086595 -0.001333
vn 0.093961 0.034199 -0.001333
vn 0.093961 -0.034199 -0.001333
vn 0.049996 -0.086595 -0.001333
vn -0.017363 -0.098472 -0.001333
vn -0.076598 -0.064273 -0.001333
vn 0.000000 0.000000 0.100000
vn 0.000000 0.000000 0.100000
vn 0.000000 0.000000 0.100000
vn 0.000000 0.000000 0.100000
vn 0.000000 0.000000 0.100000
vn 0.000000 0.000000 0.100000
vn 0.000000 0.000000 0.100000
vn 0.000000 0.000000 0.100000
vn 0.000000 0.000000 0.100000
usemtl 191,191,191
f 1/1/1 2/2/2 13/3/3
f 13/3/3 2/2/2 3/4/4
f 13/3/3 3/4/4 14/5/5
f 14/5/5 3/4/4 4/6/6
f 14/5/5 4/6/6 5/7/7
f 5/8/8 4/9/6 15/10/9
f 15/10/9 4/9/6 3/11/4
f 15/10/9 3/11/4 6/12/10
f 6/12/10 3/11/4 2/13/2
f 6/12/10 2/13/2 1/14/1
f 6/12/10 7/15/11 15/10/9
f 15/10/9 7/15/11 8/16/12
f 15/10/9 8/16/12 16/17/13
f 16/17/13 8/16/12 9/18/14
f 16/17/13 9/18/14 10/19/15
f 16/17/13 10/19/15 17/20/16
f 17/20/16 10/19/15 11/21/17
f 17/20/16 11/21/17 14/5/5
f 14/5/5 11/21/17 12/22/18
f 14/5/5 12/22/18 13/3/3
f 17/20/16 5/23/19 16/17/13
f 14/5/5 5/24/20 17/20/16
f 16/17/13 5/25/21 15/10/9
f 13/26/3 30/27/22 1/28/1
f 1/28/1 30/27/22 35/29/23
f 1/28/1 35/29/23 6/30/10
f 6/30/10 35/29/23 51/31/24
f 6/30/10 51/31/24 7/32/11
f 7/32/11 51/31/24 48/33/25
f 7/32/11 48/33/25 8/34/12
f 8/34/12 48/33/25 45/35/26
f 8/34/12 45/35/26 9/36/14
f 9/36/14 45/35/26 27/37/27
f 9/36/14 27/37/27 10/38/15
f 10/39/15 27/40/27 42/41/28
f 10/39/15 42/41/28 11/42/17
f 11/42/17 42/41/28 39/43/29
f 11/42/17 39/43/29 12/44/18
f 12/44/18 39/43/29 36/45/30
f 12/44/18 36/45/30 13/26/3
f 13/26/3 36/45/30 30/27/22
f 19/46/31 33/47/32 18/48/33
f 18/48/33 33/47/32 32/49/34
f 18/48/33 32/49/34 26/50/35
f 26/50/35 32/49/34 38/51/36
f 26/50/35 38/51/36 25/52/37
f 25/52/37 38/51/36 41/53/38
f 25/52/37 41/53/38 24/54/39
f 24/54/39 41/53/38 44/55/40
f 24/54/39 44/55/40 23/56/41
f 23/56/41 44/55/40 29/57/42
f 23/56/41 29/57/42 22/58/43
f 22/59/43 29/60/42 47/61/44
f 22/59/43 47/61/44 21/62/45
f 21/62/45 47/61/44 50/63/46
f 21/62/45 50/63/46 20/64/47
f 20/64/47 50/63/46 53/65/48
f 20/64/47 53/65/48 19/46/31
f 19/46/31 53/65/48 33/47/32
f 27/40/27 28/66/49 42/41/28
f 42/41/28 28/66/49 43/67/50
f 42/41/28 43/67/50 39/43/29
f 39/43/29 43/67/50 40/68/51
f 39/43/29 40/68/51 36/45/30
f 36/45/30 40/68/51 37/69/52
f 36/45/30 37/69/52 30/27/22
f 30/27/22 37/69/52 31/70/53
f 30/27/22 31/70/53 35/29/23
f 35/29/23 31/70/53 34/71/54
f 35/29/23 34/71/54 51/31/24
f 51/31/24 34/71/54 52/72/55
f 51/31/24 52/72/55 48/33/25
f 48/33/25 52/72/55 49/73/56
f 48/33/25 49/73/56 45/35/26
f 45/35/26 49/73/56 46/74/57
f 45/35/26 46/74/57 27/37/27
f 27/37/27 46/74/57 28/75/49
f 28/66/49 29/57/42 43/67/50
f 43/67/50 29/57/42 44/55/40
f 43/67/50 44/55/40 40/68/51
f 40/68/51 44/55/40 41/53/38
f 40/68/51 41/53/38 37/69/52
f 37/69/52 41/53/38 38/51/36
f 37/69/52 38/51/36 31/70/53
f 31/70/53 38/51/36 32/49/34
f 31/70/53 32/49/34 34/71/54
f 34/71/54 32/49/34 33/47/32
f 34/71/54 33/47/32 52/72/55
f 52/72/55 33/47/32 53/65/48
f 52/72/55 53/65/48 49/73/56
f 49/73/56 53/65/48 50/63/46
f 49/73/56 50/63/46 46/74/57
f 46/74/57 50/63/46 47/61/44
f 46/74/57 47/61/44 28/75/49
f 28/75/49 47/61/44 29/60/42
f 26/76/58 23/77/59 18/78/60
f 18/78/60 23/77/59 22/79/61
f 18/78/60 22/79/61 19/80/62
f 19/80/62 22/79/61 21/81/63
f 19/80/62 21/81/63 20/82/64
f 25/83/65 24/84/66 26/76/58
f 26/76/58 24/84/66 23/77/59

# 53 vertices
# 84 texture params
# 66 normals
# 102 facets

# 1 groups
