# WaveFront *.obj file (generated by Autodesk ATF)

mtllib top.mtl

g Solid1

v -100.000000 0.000000 140.000000
v -95.000000 5.000000 145.000000
v -95.000000 5.000000 -145.000000
v -100.000000 0.000000 -140.000000
v -90.000000 0.000000 150.000000
v -90.000000 0.000000 -150.000000
v 95.000000 5.000000 -145.000000
v 90.000000 0.000000 -150.000000
v 100.000000 0.000000 -140.000000
v 95.000000 5.000000 145.000000
v 82.113249 5.000000 -135.000000
v 82.113249 5.000000 132.113249
v -82.113249 5.000000 132.113249
v -82.113249 5.000000 -135.000000
v 100.000000 0.000000 140.000000
v 90.000000 0.000000 150.000000
v 85.000000 0.000000 135.000000
v 85.000000 0.000000 -137.886751
v -85.000000 0.000000 -137.886751
v -85.000000 0.000000 135.000000
vt 22.000000 0.353553 0.000000
vt -7.000000 0.353553 0.000000
vt 21.500000 -0.353553 0.000000
vt -6.500000 -0.353553 0.000000
vt 0.000000 0.500000 0.000000
vt -0.707107 0.000000 0.000000
vt 0.707107 0.000000 0.000000
vt 14.500000 0.353553 0.000000
vt -4.500000 0.353553 0.000000
vt 14.000000 -0.353553 0.000000
vt -4.000000 -0.353553 0.000000
vt 0.707107 0.000000 0.000000
vt -0.000000 0.500000 0.000000
vt -0.707107 0.000000 0.000000
vt 14.500000 -9.500000 0.000000
vt 13.211325 -8.211325 0.000000
vt -14.500000 -9.500000 0.000000
vt -13.500000 -8.211325 0.000000
vt -13.500000 8.211325 0.000000
vt 13.211325 8.211325 0.000000
vt 14.500000 9.500000 0.000000
vt -14.500000 9.500000 0.000000
vt 22.000000 0.353553 0.000000
vt -7.000000 0.353553 0.000000
vt 21.500000 -0.353553 0.000000
vt -6.500000 -0.353553 0.000000
vt 14.500000 0.353553 0.000000
vt -4.500000 0.353553 0.000000
vt 14.000000 -0.353553 0.000000
vt -4.000000 -0.353553 0.000000
vt 0.707107 0.000000 0.000000
vt -0.000000 0.500000 0.000000
vt -0.707107 0.000000 0.000000
vt 13.788675 8.500000 0.000000
vt 14.000000 10.000000 0.000000
vt -13.500000 8.500000 0.000000
vt -14.000000 10.000000 0.000000
vt -15.000000 9.000000 0.000000
vt 13.788675 -8.500000 0.000000
vt 15.000000 -9.000000 0.000000
vt 15.000000 9.000000 0.000000
vt 14.000000 -10.000000 0.000000
vt -13.500000 -8.500000 0.000000
vt -14.000000 -10.000000 0.000000
vt -15.000000 -9.000000 0.000000
vt 0.707107 0.000000 0.000000
vt -0.000000 0.500000 0.000000
vt -0.707107 0.000000 0.000000
vt -26.711325 -0.077350 0.000000
vt -0.000000 -0.077350 0.000000
vt -27.000000 0.500000 0.000000
vt 0.288675 0.500000 0.000000
vt -16.711325 -0.000000 0.000000
vt -0.288675 0.000000 0.000000
vt -17.000000 0.577350 0.000000
vt -0.000000 0.577350 0.000000
vt -27.000000 -0.077350 0.000000
vt -0.288675 -0.077350 0.000000
vt -27.288675 0.500000 0.000000
vt -0.000000 0.500000 0.000000
vt -16.711325 -0.077350 0.000000
vt -0.288675 -0.077350 0.000000
vt -17.000000 0.500000 0.000000
vt -0.000000 0.500000 0.000000
vn -0.070711 0.070711 0.000000
vn -0.070711 0.070711 0.000000
vn -0.070711 0.070711 0.000000
vn -0.070711 0.070711 0.000000
vn -0.070711 0.000000 0.070711
vn -0.070711 0.000000 0.070711
vn -0.070711 0.000000 0.070711
vn 0.000000 0.070711 -0.070711
vn 0.000000 0.070711 -0.070711
vn 0.000000 0.070711 -0.070711
vn 0.000000 0.070711 -0.070711
vn 0.070711 0.000000 -0.070711
vn 0.070711 0.000000 -0.070711
vn 0.070711 0.000000 -0.070711
vn 0.000000 0.100000 0.000000
vn 0.000000 0.100000 0.000000
vn 0.000000 0.100000 0.000000
vn 0.000000 0.100000 0.000000
vn 0.000000 0.100000 0.000000
vn 0.000000 0.100000 0.000000
vn 0.000000 0.100000 0.000000
vn 0.000000 0.100000 0.000000
vn 0.070711 0.070711 -0.000000
vn 0.070711 0.070711 -0.000000
vn 0.070711 0.070711 -0.000000
vn 0.070711 0.070711 -0.000000
vn 0.000000 0.070711 0.070711
vn 0.000000 0.070711 0.070711
vn 0.000000 0.070711 0.070711
vn 0.000000 0.070711 0.070711
vn 0.070711 -0.000000 0.070711
vn 0.070711 -0.000000 0.070711
vn 0.070711 -0.000000 0.070711
vn 0.000000 -0.100000 0.000000
vn 0.000000 -0.100000 0.000000
vn 0.000000 -0.100000 0.000000
vn 0.000000 -0.100000 0.000000
vn 0.000000 -0.100000 0.000000
vn 0.000000 -0.100000 0.000000
vn 0.000000 -0.100000 0.000000
vn 0.000000 -0.100000 0.000000
vn 0.000000 -0.100000 0.000000
vn 0.000000 -0.100000 0.000000
vn 0.000000 -0.100000 0.000000
vn 0.000000 -0.100000 0.000000
vn -0.070711 0.000000 -0.070711
vn -0.070711 0.000000 -0.070711
vn -0.070711 0.000000 -0.070711
vn -0.086603 -0.050000 0.000000
vn -0.086603 -0.050000 0.000000
vn -0.086603 -0.050000 0.000000
vn -0.086603 -0.050000 0.000000
vn 0.000000 -0.050000 0.086603
vn 0.000000 -0.050000 0.086603
vn 0.000000 -0.050000 0.086603
vn 0.000000 -0.050000 0.086603
vn 0.086603 -0.050000 -0.000000
vn 0.086603 -0.050000 -0.000000
vn 0.086603 -0.050000 -0.000000
vn 0.086603 -0.050000 -0.000000
vn 0.000000 -0.050000 -0.086603
vn 0.000000 -0.050000 -0.086603
vn 0.000000 -0.050000 -0.086603
vn 0.000000 -0.050000 -0.086603
usemtl 191,191,191
f 2/1/1 3/2/2 1/3/3
f 1/3/3 3/2/2 4/4/4
f 2/5/5 1/6/6 5/7/7
f 3/8/8 7/9/9 6/10/10
f 6/10/10 7/9/9 8/11/11
f 8/12/12 7/13/13 9/14/14
f 2/15/15 13/16/16 3/17/17
f 3/17/17 13/16/16 14/18/18
f 3/17/17 14/18/18 11/19/19
f 13/16/16 2/15/15 12/20/20
f 12/20/20 2/15/15 10/21/21
f 12/20/20 10/21/21 7/22/22
f 12/20/20 7/22/22 11/19/19
f 11/19/19 7/22/22 3/17/17
f 7/23/23 10/24/24 9/25/25
f 9/25/25 10/24/24 15/26/26
f 10/27/27 2/28/28 16/29/29
f 16/29/29 2/28/28 5/30/30
f 15/31/31 10/32/32 16/33/33
f 18/34/34 9/35/35 17/36/36
f 17/36/36 9/35/35 15/37/37
f 17/36/36 15/37/37 16/38/38
f 19/39/39 6/40/40 18/34/34
f 18/34/34 6/40/40 8/41/41
f 18/34/34 8/41/41 9/35/35
f 6/40/40 19/39/39 4/42/42
f 4/42/42 19/39/39 20/43/43
f 4/42/42 20/43/43 1/44/44
f 1/44/44 20/43/43 5/45/45
f 5/45/45 20/43/43 17/36/36
f 5/45/45 17/36/36 16/38/38
f 4/46/46 3/47/47 6/48/48
f 12/49/49 11/50/50 17/51/51
f 17/51/51 11/50/50 18/52/52
f 11/53/53 14/54/54 18/55/55
f 18/55/55 14/54/54 19/56/56
f 14/57/57 13/58/58 19/59/59
f 19/59/59 13/58/58 20/60/60
f 13/61/61 12/62/62 20/63/63
f 20/63/63 12/62/62 17/64/64

# 20 vertices
# 64 texture params
# 64 normals
# 40 facets

# 1 groups
